<svg width="1600" height="720" viewBox="0 0 1600 720" fill="none" xmlns="http://www.w3.org/2000/svg">
  <defs>
    <linearGradient id="bg" x1="120" y1="80" x2="1480" y2="640" gradientUnits="userSpaceOnUse">
      <stop stop-color="#111827"/>
      <stop offset="0.52" stop-color="#0F3B2E"/>
      <stop offset="1" stop-color="#08131E"/>
    </linearGradient>
    <radialGradient id="glow" cx="0" cy="0" r="1" gradientUnits="userSpaceOnUse" gradientTransform="translate(800 360) rotate(90) scale(260 620)">
      <stop stop-color="#4ADE80" stop-opacity="0.28"/>
      <stop offset="1" stop-color="#4ADE80" stop-opacity="0"/>
    </radialGradient>
    <linearGradient id="feltLine" x1="0" y1="0" x2="1" y2="1">
      <stop stop-color="#7DD3FC"/>
      <stop offset="1" stop-color="#A78BFA"/>
    </linearGradient>
    <filter id="shadow" x="0" y="0" width="1600" height="720" filterUnits="userSpaceOnUse">
      <feDropShadow dx="0" dy="24" stdDeviation="26" flood-color="#020617" flood-opacity="0.45"/>
    </filter>
  </defs>

  <rect width="1600" height="720" rx="40" fill="url(#bg)"/>
  <rect width="1600" height="720" rx="40" fill="url(#glow)"/>

  <ellipse cx="820" cy="396" rx="470" ry="176" fill="#0C2B22" stroke="url(#feltLine)" stroke-width="6"/>
  <ellipse cx="820" cy="396" rx="400" ry="126" fill="#0E4030" opacity="0.82"/>
  <ellipse cx="820" cy="398" rx="330" ry="78" fill="#14543F" opacity="0.72"/>

  <g opacity="0.16">
    <path d="M152 120L1454 640" stroke="#93C5FD" stroke-width="2"/>
    <path d="M96 570L1430 110" stroke="#A78BFA" stroke-width="2"/>
    <path d="M0 360H1600" stroke="#34D399" stroke-width="2"/>
  </g>

  <g filter="url(#shadow)">
    <g transform="translate(1115 160) rotate(12)">
      <rect x="0" y="0" width="146" height="206" rx="16" fill="#F8FAFC"/>
      <rect x="10" y="10" width="126" height="186" rx="12" stroke="#CBD5E1" stroke-width="2"/>
      <path d="M28 46H54V72H28V46Z" fill="#E11D48"/>
      <path d="M41 78C31 96 20 107 20 119C20 133 30 144 41 152C52 144 62 133 62 119C62 107 51 96 41 78Z" fill="#E11D48"/>
      <text x="28" y="36" fill="#E11D48" font-size="28" font-family="Inter, Arial, sans-serif" font-weight="700">A</text>
      <text x="100" y="176" fill="#E11D48" font-size="28" font-family="Inter, Arial, sans-serif" font-weight="700">A</text>
    </g>

    <g transform="translate(970 212) rotate(-6)">
      <rect x="0" y="0" width="146" height="206" rx="16" fill="#F8FAFC"/>
      <rect x="10" y="10" width="126" height="186" rx="12" stroke="#CBD5E1" stroke-width="2"/>
      <path d="M34 82C46 67 62 50 73 34C84 50 100 67 112 82C97 87 85 98 79 111C77 116 75 121 73 127C71 121 69 116 67 111C61 98 49 87 34 82Z" fill="#111827"/>
      <rect x="67" y="118" width="12" height="38" fill="#111827"/>
      <text x="28" y="36" fill="#111827" font-size="28" font-family="Inter, Arial, sans-serif" font-weight="700">K</text>
      <text x="100" y="176" fill="#111827" font-size="28" font-family="Inter, Arial, sans-serif" font-weight="700">K</text>
    </g>
  </g>

  <g transform="translate(260 188)">
    <circle cx="0" cy="0" r="72" fill="#E11D48"/>
    <circle cx="0" cy="0" r="60" stroke="#F8FAFC" stroke-opacity="0.85" stroke-width="10" fill="none"/>
    <circle cx="0" cy="0" r="28" fill="#7F1D1D" fill-opacity="0.35"/>
    <path d="M0 -60V-44M42 -42L30 -30M60 0H44M42 42L30 30M0 60V44M-42 42L-30 30M-60 0H-44M-42 -42L-30 -30" stroke="#F8FAFC" stroke-width="8" stroke-linecap="round"/>
  </g>

  <g transform="translate(325 472)">
    <circle cx="0" cy="0" r="72" fill="#2563EB"/>
    <circle cx="0" cy="0" r="60" stroke="#DBEAFE" stroke-opacity="0.9" stroke-width="10" fill="none"/>
    <circle cx="0" cy="0" r="28" fill="#1E3A8A" fill-opacity="0.36"/>
    <path d="M0 -60V-44M42 -42L30 -30M60 0H44M42 42L30 30M0 60V44M-42 42L-30 30M-60 0H-44M-42 -42L-30 -30" stroke="#DBEAFE" stroke-width="8" stroke-linecap="round"/>
  </g>
</svg>
